<?xml version="1.0" encoding="utf-8"?>
<svg id="master-artboard" viewBox="0 0 1400 980" version="1.1" xmlns="http://www.w3.org/2000/svg" x="0px" y="0px" style="enable-background:new 0 0 336 235.2;" width="1400px" height="980px"><rect id="ee-background" x="0" y="0" width="1400" height="980" style="fill: white; fill-opacity: 0; pointer-events: none;"/><g transform="matrix(9.8, 0, 0, 9.8, 210.00005181479804, -5.684341886080802e-14)"><path d="M44.2,32.7c5.7,0,10.4-4.7,10.4-10.4S50,11.9,44.2,11.9c-5.7,0-10.4,4.7-10.4,10.4S38.5,32.7,44.2,32.7z M44.2,13.9  c4.6,0,8.4,3.8,8.4,8.4s-3.8,8.4-8.4,8.4c-4.6,0-8.4-3.8-8.4-8.4S39.6,13.9,44.2,13.9z" style="fill-opacity: 1; fill: rgb(199, 255, 255);"/><path d="M34.8,57.7c3.8,0,6.8-3.1,6.8-6.8c0-3.8-3.1-6.8-6.8-6.8s-6.8,3.1-6.8,6.8C27.9,54.6,31,57.7,34.8,57.7z M34.8,46  c2.7,0,4.8,2.2,4.8,4.8s-2.2,4.8-4.8,4.8s-4.8-2.2-4.8-4.8S32.1,46,34.8,46z" style="fill: rgb(199, 255, 255);"/><path d="M32.6,51.8c0.6,0,1-0.4,1-1c0-0.6,0.5-1.2,1.2-1.2c0.6,0,1-0.4,1-1s-0.4-1-1-1c-1.7,0-3.2,1.4-3.2,3.2  C31.6,51.4,32.1,51.8,32.6,51.8z" style="fill: rgb(199, 255, 255);"/><path d="M81,61.8c-3.8,0-6.8,3.1-6.8,6.8c0,3.8,3.1,6.8,6.8,6.8s6.8-3.1,6.8-6.8C87.8,64.8,84.7,61.8,81,61.8z M81,73.5  c-2.7,0-4.8-2.2-4.8-4.8s2.2-4.8,4.8-4.8s4.8,2.2,4.8,4.8S83.6,73.5,81,73.5z" style="fill: rgb(199, 255, 255);"/><path d="M81,65.5c-1.7,0-3.2,1.4-3.2,3.2c0,0.6,0.4,1,1,1s1-0.4,1-1c0-0.6,0.5-1.2,1.2-1.2c0.6,0,1-0.4,1-1S81.5,65.5,81,65.5z" style="fill: rgb(199, 255, 255);"/><path d="M80.3,32.7c3.8,0,6.8-3.1,6.8-6.8c0-3.8-3.1-6.8-6.8-6.8c-3.8,0-6.8,3.1-6.8,6.8C73.5,29.6,76.5,32.7,80.3,32.7z M80.3,21  c2.7,0,4.8,2.2,4.8,4.8s-2.2,4.8-4.8,4.8c-2.7,0-4.8-2.2-4.8-4.8S77.6,21,80.3,21z" style="fill: rgb(199, 255, 255);"/><path d="M78.2,26.9c0.6,0,1-0.4,1-1c0-0.6,0.5-1.2,1.2-1.2c0.6,0,1-0.4,1-1s-0.4-1-1-1c-1.7,0-3.2,1.4-3.2,3.2  C77.2,26.4,77.6,26.9,78.2,26.9z" style="fill: rgb(199, 255, 255);"/><path d="M39.1,22.1c0.6,0,1-0.4,1-1c0-1.6,1.3-2.9,2.9-2.9c0.6,0,1-0.4,1-1s-0.4-1-1-1c-2.7,0-4.9,2.2-4.9,4.9  C38.1,21.6,38.6,22.1,39.1,22.1z" style="fill: rgb(199, 255, 255);"/><path d="M66.2,59.3c7.5,0,13.6-6.1,13.6-13.6c0-7.5-6.1-13.6-13.6-13.6s-13.6,6.1-13.6,13.6C52.6,53.2,58.7,59.3,66.2,59.3z   M66.2,34.2c6.4,0,11.6,5.2,11.6,11.6s-5.2,11.6-11.6,11.6s-11.6-5.2-11.6-11.6S59.8,34.2,66.2,34.2z" style="fill: rgb(199, 255, 255);"/><path d="M58.1,46.2c0.6,0,1-0.4,1-1c0-3.9,3.1-7,7-7c0.6,0,1-0.4,1-1s-0.4-1-1-1c-5,0-9,4-9,9C57.1,45.7,57.6,46.2,58.1,46.2z" style="fill: rgb(199, 255, 255);"/><path d="M47.9,80.6c4.6,0,8.3-3.7,8.3-8.3c0-4.6-3.7-8.3-8.3-8.3s-8.3,3.7-8.3,8.3C39.6,76.9,43.3,80.6,47.9,80.6z M47.9,66.1  c3.5,0,6.3,2.8,6.3,6.3s-2.8,6.3-6.3,6.3s-6.3-2.8-6.3-6.3S44.4,66.1,47.9,66.1z" style="fill: rgb(199, 255, 255);"/><path d="M44.8,72.7c0.6,0,1-0.4,1-1c0-1.1,0.9-2,2-2c0.6,0,1-0.4,1-1s-0.4-1-1-1c-2.2,0-4,1.8-4,4C43.8,72.3,44.3,72.7,44.8,72.7z" style="fill: rgb(199, 255, 255);"/><path d="M18.7,27.1c3.7,0,6.7-3,6.7-6.7c0-3.7-3-6.7-6.7-6.7s-6.7,3-6.7,6.7C12,24.1,15,27.1,18.7,27.1z M18.7,15.7  c2.6,0,4.7,2.1,4.7,4.7c0,2.6-2.1,4.7-4.7,4.7S14,23,14,20.4C14,17.8,16.1,15.7,18.7,15.7z" style="fill: rgb(199, 255, 255);"/><path d="M28.9,67.4c2.3,0,4.3-1.9,4.3-4.3s-1.9-4.3-4.3-4.3s-4.3,1.9-4.3,4.3S26.6,67.4,28.9,67.4z M28.9,60.9c1.2,0,2.3,1,2.3,2.3  s-1,2.3-2.3,2.3s-2.3-1-2.3-2.3S27.7,60.9,28.9,60.9z" style="fill: rgb(199, 255, 255);"/><path d="M14.9,81c0,2.1,1.7,3.8,3.8,3.8s3.8-1.7,3.8-3.8s-1.7-3.8-3.8-3.8S14.9,78.9,14.9,81z M20.5,81c0,1-0.8,1.8-1.8,1.8  S16.9,82,16.9,81s0.8-1.8,1.8-1.8S20.5,80,20.5,81z" style="fill: rgb(199, 255, 255);"/><path d="M18.3,43c0-2.1-1.7-3.8-3.8-3.8c-2.1,0-3.8,1.7-3.8,3.8s1.7,3.8,3.8,3.8C16.6,46.8,18.3,45.1,18.3,43z M12.7,43  c0-1,0.8-1.8,1.8-1.8s1.8,0.8,1.8,1.8s-0.8,1.8-1.8,1.8S12.7,44,12.7,43z" style="fill: rgb(199, 255, 255);"/><path d="M69.7,84.3c0-2.4-1.9-4.3-4.3-4.3s-4.3,1.9-4.3,4.3s1.9,4.3,4.3,4.3S69.7,86.6,69.7,84.3z M63.1,84.3c0-1.2,1-2.3,2.3-2.3  s2.3,1,2.3,2.3s-1,2.3-2.3,2.3S63.1,85.5,63.1,84.3z" style="fill: rgb(199, 255, 255);"/><path d="M17,21c0.6,0,1-0.4,1-1c0-0.4,0.3-0.7,0.7-0.7c0.6,0,1-0.4,1-1s-0.4-1-1-1c-1.5,0-2.7,1.2-2.7,2.7C16,20.5,16.5,21,17,21z" style="fill: rgb(199, 255, 255);"/></g></svg>